<svg width="1288" height="575" viewBox="0 0 1288 575" fill="none" xmlns="http://www.w3.org/2000/svg">
<path d="M191.266 534H147.564L62.1472 385.443V534H21.4252V324.856H67.2552L150.544 470.86V324.856H191.266V534ZM363.303 528.892C351.763 535.986 337.574 539.534 320.736 539.534C293.021 539.534 270.319 529.933 252.63 510.73C234.184 491.433 224.962 465.042 224.962 431.556C224.962 397.692 234.279 370.544 252.914 350.112C271.548 329.68 296.19 319.464 326.838 319.464C353.418 319.464 374.749 326.228 390.829 339.754C407.005 353.187 416.275 369.977 418.64 390.125H375.647C372.337 375.841 364.249 365.862 351.384 360.186C344.195 357.065 336.202 355.504 327.405 355.504C310.568 355.504 296.71 361.889 285.832 374.659C275.048 387.334 269.656 406.442 269.656 431.982C269.656 457.711 275.521 475.92 287.251 486.609C298.98 497.298 312.318 502.643 327.263 502.643C341.925 502.643 353.938 498.433 363.303 490.015C372.668 481.501 378.438 470.387 380.613 456.671H332.229V421.766H419.349V534H390.404L386.005 507.892C377.586 517.825 370.019 524.825 363.303 528.892ZM587.839 453.407V324.856H632.25V453.407C632.25 475.636 628.797 492.947 621.892 505.338C609.028 528.041 584.481 539.392 548.252 539.392C512.023 539.392 487.429 528.041 474.47 505.338C467.565 492.947 464.112 475.636 464.112 453.407V324.856H508.523V453.407C508.523 467.785 510.226 478.285 513.631 484.907C518.928 496.636 530.469 502.501 548.252 502.501C565.941 502.501 577.434 496.636 582.731 484.907C586.136 478.285 587.839 467.785 587.839 453.407ZM845.86 324.856L775.909 455.394V534H732.208V455.394L659.845 324.856H711.35L754.768 415.949L796.341 324.856H845.86ZM1019.32 442.624H917.724V496.4H1033.51V534H875.016V324.856H1028.4V361.889H917.724V406.3H1019.32V442.624ZM1239.6 534H1195.89L1110.48 385.443V534H1069.76V324.856H1115.59L1198.87 470.86V324.856H1239.6V534Z" fill="#D6D2BD"/>
<path d="M23.1346 57.8562H66.8363V229.4H170.415V267H23.1346V57.8562Z" fill="#D6D2BD"/>
<path d="M1016.27 267H972.564L887.147 118.443V267H846.425V57.8562H892.255L975.544 203.86V57.8562H1016.27V267ZM1188.3 261.892C1176.76 268.986 1162.57 272.534 1145.74 272.534C1118.02 272.534 1095.32 262.933 1077.63 243.73C1059.18 224.433 1049.96 198.042 1049.96 164.556C1049.96 130.692 1059.28 103.544 1077.91 83.1124C1096.55 62.6804 1121.19 52.4644 1151.84 52.4644C1178.42 52.4644 1199.75 59.2278 1215.83 72.7545C1232 86.1866 1241.27 102.977 1243.64 123.125H1200.65C1197.34 108.841 1189.25 98.862 1176.38 93.1864C1169.2 90.0649 1161.2 88.5041 1152.41 88.5041C1135.57 88.5041 1121.71 94.8891 1110.83 107.659C1100.05 120.334 1094.66 139.442 1094.66 164.982C1094.66 190.711 1100.52 208.92 1112.25 219.609C1123.98 230.298 1137.32 235.643 1152.26 235.643C1166.93 235.643 1178.94 231.433 1188.3 223.015C1197.67 214.501 1203.44 203.387 1205.61 189.671H1157.23V154.766H1244.35V267H1215.4L1211.01 240.892C1202.59 250.825 1195.02 257.825 1188.3 261.892Z" fill="#D6D2BD"/>
<path d="M170 266.5V229.9L811 229.5V266.5H170Z" fill="#FF611D" stroke="#FF611D"/>
<path d="M67 95V58.4L811 58V95H67Z" fill="#FF611D" stroke="#FF611D"/>
<path d="M811 58H767V266.5H811V58Z" fill="#FF611D" stroke="#FF611D"/>
</svg>
